<!-- Generator: Adobe Illustrator 24.0.0, SVG Export Plug-In  -->
<svg version="1.1" xmlns="http://www.w3.org/2000/svg" xmlns:xlink="http://www.w3.org/1999/xlink" x="0px" y="0px" width="189.8px"
	 height="41.3px" viewBox="0 0 189.8 41.3" style="enable-background:new 0 0 189.8 41.3;" xml:space="preserve">
<style type="text/css">
	.st0{fill:#fff;}
</style>
<defs>
</defs>
<g>
	<polygon class="st0" points="69.6,40.8 86.6,40.8 86.6,37.3 74,37.3 74,29.2 85.1,29.2 85.1,25.7 74,25.7 74,19 86.6,19 86.6,15.4 
		69.6,15.4 	"/>
	<path class="st0" d="M100.2,29.9c-1-0.3-2.1-0.6-3.1-0.8c-1-0.2-1.9-0.5-2.6-0.9c-0.7-0.4-1.1-0.9-1.1-1.6c0-0.8,0.4-1.4,1.1-1.8
		c0.7-0.4,1.6-0.6,2.7-0.6c2,0,3.8,0.5,5.4,1.4l0.6-3.5c-2-0.9-4.1-1.4-6.4-1.4c-2.4,0-4.3,0.5-5.7,1.5c-1.4,1-2.1,2.5-2.1,4.5
		c0,1.4,0.4,2.5,1.1,3.4c0.7,0.9,1.6,1.4,2.6,1.8c1,0.3,2.1,0.6,3.1,0.8c1,0.2,1.9,0.5,2.6,0.9c0.7,0.4,1.1,0.9,1.1,1.7
		c0,1.6-1.5,2.5-4.4,2.5c-2.3,0-4.2-0.4-6-1.3l-0.6,3.4c2,0.9,4.4,1.4,7.1,1.4c5.5,0,8.3-2,8.3-6.1c0-1.4-0.4-2.6-1.1-3.4
		C102.2,30.8,101.3,30.2,100.2,29.9"/>
	<path class="st0" d="M119,27.3c-1.3-0.5-2.5-1-3.7-1.4c-1.2-0.4-2.3-0.9-3.2-1.6c-0.9-0.6-1.3-1.4-1.3-2.4c0-1.1,0.4-1.9,1.3-2.4
		c0.9-0.5,2-0.8,3.4-0.8c2.5,0,4.7,0.6,6.5,1.7l0.6-3.5c-2.1-1.3-4.7-1.9-7.7-1.9c-2.5,0-4.6,0.6-6.3,1.8c-1.7,1.2-2.5,3-2.5,5.5
		c0,1.7,0.4,3,1.3,4.1c0.9,1.1,1.9,1.9,3.2,2.4c1.3,0.5,2.5,1,3.7,1.4c1.2,0.4,2.3,0.9,3.2,1.5c0.9,0.6,1.3,1.4,1.3,2.3
		c0,1.2-0.5,2-1.6,2.6c-1,0.6-2.4,0.9-4,0.9c-2.8,0-5.1-0.6-7-1.7l-0.6,3.5c2.2,1.3,4.8,1.9,8,1.9c1.8,0,3.3-0.2,4.7-0.7
		c1.4-0.5,2.6-1.3,3.5-2.5c1-1.2,1.4-2.6,1.4-4.3c0-1.6-0.4-3-1.3-4C121.3,28.6,120.2,27.8,119,27.3"/>
	<path class="st0" d="M132.5,20.7c-2.3,0-4.8,0.4-7.4,1.3l0.6,3.5c2.3-0.8,4.5-1.2,6.6-1.2c1.4,0,2.5,0.3,3.2,0.9
		c0.7,0.6,1.1,1.6,1.1,3v1.1h-4.1c-2.9,0-5,0.5-6.3,1.4c-1.4,0.9-2.1,2.5-2.1,4.7c0,2.1,0.8,3.7,2.3,4.6c1.5,0.9,3.7,1.4,6.4,1.4
		c2.9,0,5.6-0.4,8.1-1.2v-12C141,23.2,138.2,20.7,132.5,20.7 M136.7,37.8c-1,0.3-2.2,0.5-3.5,0.5c-1.4,0-2.5-0.3-3.3-0.8
		c-0.8-0.5-1.2-1.3-1.2-2.4c0-2.2,1.6-3.3,4.8-3.3h3.2V37.8z"/>
	<path class="st0" d="M149.7,37.7c-0.7,0-1.2-0.2-1.5-0.7c-0.3-0.5-0.5-1.4-0.5-2.7V13.5h-4.4v21.1c0,4.4,1.7,6.6,5.1,6.6
		c1.3,0,2.5-0.2,3.5-0.5l-0.6-3.3C150.8,37.5,150.3,37.7,149.7,37.7"/>
	<path class="st0" d="M165.5,37c-1.1,0.6-2.5,0.8-4.3,0.8c-1.5,0-2.6-0.3-3.5-1c-0.9-0.7-1.3-1.9-1.3-3.8V21.3h-4.4v12
		c0,1.5,0.2,2.8,0.7,3.9c0.5,1.1,1.2,1.9,2,2.5c0.9,0.6,1.8,1,2.8,1.3c1,0.3,2.2,0.4,3.5,0.4c3.7,0,6.6-0.5,8.7-1.6V21.3h-4.4V37z"
		/>
	<path class="st0" d="M185.4,13.5v8.1c-1.1-0.5-2.4-0.7-3.9-0.7c-2.9,0-5.2,0.8-7,2.5c-1.8,1.7-2.7,4.2-2.7,7.7c0,3.6,1,6.2,2.9,7.8
		c1.9,1.7,4.5,2.5,7.8,2.5c2.6,0,5-0.4,7.3-1.2V13.5H185.4z M185.4,37.3c-0.9,0.4-1.9,0.6-3,0.6c-1.8,0-3.2-0.5-4.3-1.5
		c-1.1-1-1.7-2.7-1.7-5.2c0-2.4,0.6-4.2,1.7-5.2c1.2-1.1,2.6-1.6,4.3-1.6c1.2,0,2.2,0.2,3.1,0.7V37.3z"/>
	<path class="st0" d="M49.2,38.9l4.6-9.6l8.2,7.2l1.8-1.2l-8.1-12.1l7.1-3.6l-0.6-1.5c0,0-5.9,1.4-7.7,1.9c0.9-0.7,1.1-2.3,1.1-2.3
		c0-0.5-0.1-0.9-0.3-1.3c0-0.1,0-0.1-0.1-0.1c0-0.1-0.1-0.1-0.1-0.2c-0.1-0.1-0.2-0.3-0.3-0.4c0,0,0,0,0,0c0,0-0.1-0.1-0.1-0.1
		c-0.1-0.1-0.1-0.1-0.2-0.2c-0.3-0.3-0.6-0.5-1-0.7c0,0,0,0,0,0c0,0-0.1,0-0.1,0c-0.2-0.1-0.4-0.1-0.7-0.2c-0.1,0-0.1,0-0.2,0
		c0,0-0.1,0-0.1,0c-0.1,0-0.1,0-0.2,0c0,0-0.1,0-0.1,0c-0.1,0-0.2,0-0.3,0c0,0,0,0,0,0c-0.1,0-0.2,0-0.3,0.1c-1,0.2-1.8,0.8-2.3,1.6
		c0,0,0,0,0,0.1c-0.1,0.1-0.1,0.3-0.2,0.4c0,0,0,0.1-0.1,0.2c0,0.1-0.1,0.2-0.1,0.3c0,0.1,0,0.1,0,0.2c0,0.1,0,0.2,0,0.3
		c0,0,0,0.1,0,0.1c0,0,0,0.5,0.1,0.7c0.3,1.2,1.2,2.1,2.4,2.4l-8.5,4.9c-1.8-1.4-4-3.1-5.9-4.5c0.7-0.3,1.3-0.9,1.7-1.6
		c0.9,2.1,3.6,1,3.6,1c-0.7-2.3-2.4-2.2-3.3-1.9c0-0.1,0-0.3,0-0.4c0-1.8-1.5-3.2-3.3-3.2c-1.3,0-2.4,0.7-2.9,1.7
		c-1.3-2.1-3.7-0.5-3.7-0.5c1,2,2.5,1.8,3.4,1.4c0,0.2-0.1,0.4-0.1,0.5c0,0.4,0.1,0.8,0.2,1.2L31,19.1l0,0c0,0,0,0,0,0L24.4,16
		l-0.9,1.8l7.8,4.8l-7.8,6.1l0,0l-0.1,0.1l2.7,1.1l-4.6,7.9l2,0.4l5.8-7l3.8,1.5l0.9,6.2H21.7l0-0.1l-1.8-0.3l1.5-2.6L19,29l2.7-0.3
		l-4.4-15.2l5.3,3.8l1-1.9c0,0-7.6-7.7-8-8c0.7,0.7,2.7-0.5,3.5-1.5c-1.2-0.2-1.6-0.7-1.7-1.3c-0.3-1.2,0.2-4.2-3.7-4.6
		c-3.9,0.4-3.4,3.3-3.7,4.6c-0.1,0.6-0.5,1-1.7,1.3c0.7,1,2.1,1.3,3,1.7L0,15.7l1,1.6l8.4-3.8L3,30.5l3.4-0.3l-3,8.6H2.3v2h64v-2
		H49.2z M6.1,38.9l4.4-9.1l4.9-0.3l4.4,9.4H6.1z M36,38.9l0.4-4.8l2.1,0.9l-2.6-10.6l6.6,3.5l7.4-2.8l-3,13.9H36z"/>
	<polygon class="st0" points="31.7,38.9 32.8,38.9 32.4,36.2 	"/>
	<path class="st0" d="M27.4,16.3L27.3,16l0.8-0.5c0.1-0.1,1.2-0.8,2.5-0.8c0.4,0,1.1,0.1,1.7,0.5l0.4-0.2c0.5-0.4,1.1-0.7,1.8-0.8
		l1.5-0.7l0,0.6c1.9,0.3,3.4,1.6,3.7,3.4c1,0,2.6,0.4,3.3,2.7l0.3,0.8l-0.8,0.4c-0.1,0-0.9,0.4-2,0.4c-0.6,0-1.2-0.1-1.6-0.4
		c0.3,0.3,0.7,0.5,1,0.8c1,0.7,1.9,1.5,2.8,2.2l2.7-1.5l-0.9-9.2l3.5,2.1c0-0.1,0.1-0.1,0.1-0.2c0,0,0-0.1,0.1-0.1
		c0.5-0.8,1.2-1.5,2.1-1.8l-8-6.3c1.4-0.6,2.4-2,2.4-3.5c0-2.1-1.8-3.9-4.1-3.9c-2.2,0-4.1,1.7-4.1,3.9c0,1.5,0.9,2.8,2.2,3.4
		l-12.8,8.2L27.4,16.3z"/>
	<polygon class="st0" points="46.4,27.4 42.9,28.7 42.5,28.9 42.1,28.7 44.7,38.9 45.8,38.9 47.4,31.4 	"/>
	<polygon class="st0" points="38.5,30.6 39.4,27.3 37.5,26.3 	"/>
</g>
</svg>
