<?xml version="1.0" encoding="UTF-8"?>
<svg id="Capa_1" data-name="Capa 1" xmlns="http://www.w3.org/2000/svg" viewBox="0 0 154.75 22.57">
  <defs>
    <style>
      .cls-1 {
        fill: #1ed6fe;
      }

      .cls-1, .cls-2 {
        stroke-width: 0px;
      }

      .cls-2 {
        fill: #fff;
      }
    </style>
  </defs>
  <g>
    <g>
      <path class="cls-1" d="M96.79,17.34V1.95c0-.21.17-.38.38-.38h5.65c1.68,0,3.16.29,4.44.86,1.28.57,2.29,1.46,3.03,2.66.73,1.2,1.1,2.75,1.1,4.64,0,1.78-.37,3.26-1.11,4.44-.74,1.19-1.76,2.08-3.05,2.66-1.29.59-2.77.88-4.43.88h-5.63c-.21,0-.38-.17-.38-.38ZM99.84,14.63c0,.21.17.38.38.38h2.31c1.82,0,3.23-.45,4.2-1.34.98-.9,1.47-2.19,1.47-3.89s-.45-3.04-1.34-4.02c-.9-.98-2.34-1.48-4.32-1.48h-2.31c-.21,0-.38.17-.38.38v9.97Z"/>
      <path class="cls-1" d="M119.91,17.58l-.06-.92c-.31.37-.78.7-1.42.99-.64.29-1.34.44-2.1.44-.61,0-1.22-.13-1.83-.39s-1.11-.66-1.5-1.21c-.4-.55-.59-1.24-.59-2.08,0-1.29.46-2.29,1.38-3,.92-.71,2.12-1.07,3.61-1.07.27,0,.6,0,.98.02.38.02.87.04,1.47.07v-.27c0-.56-.23-1.01-.68-1.33-.45-.32-1.04-.48-1.77-.48-.81,0-1.45.11-1.94.31-.43.19-.82.39-1.16.6-.07.05-.17.03-.21-.05l-1.13-1.68c-.05-.07-.03-.17.04-.22.28-.2.6-.39.96-.58.42-.22.94-.4,1.55-.55.61-.15,1.37-.22,2.28-.22,1.45,0,2.62.38,3.49,1.15.87.77,1.31,1.76,1.31,2.97v7.47c0,.09-.07.16-.16.16h-2.36c-.08,0-.15-.06-.16-.15ZM119.85,13.7v-1.11c-.37-.03-.77-.06-1.21-.07-.44-.02-.77-.02-.99-.02-.92,0-1.57.18-1.94.55-.37.36-.56.78-.56,1.25s.17.86.52,1.14c.35.27.86.41,1.54.41.45,0,.88-.1,1.27-.29.4-.19.72-.45.98-.78.26-.32.39-.68.39-1.07Z"/>
      <path class="cls-1" d="M130.54,15.81c-.02-.11-.13-.19-.24-.17-.14.02-.3.03-.47.03-.48,0-.84-.17-1.05-.52-.22-.35-.33-.84-.33-1.49v-4.76c0-.12.09-.21.21-.21h2.63c.12,0,.21-.09.21-.21v-1.91c0-.12-.09-.21-.21-.21h-2.63c-.12,0-.21-.09-.21-.21v-3.26c0-.12-.09-.21-.21-.21h-2.44c-.12,0-.21.09-.21.21v3.26c0,.12-.09.21-.21.21h-1.52c-.12,0-.21.09-.21.21v1.91c0,.12.09.21.21.21h1.52c.12,0,.21.09.21.21v4.95c0,1.28.28,2.3.85,3.08s1.54,1.16,2.93,1.16c.48,0,.93-.06,1.34-.16.11-.03.17-.13.15-.24l-.32-1.88Z"/>
      <path class="cls-1" d="M145.02,16.26l1.55-1.68c.05-.05.13-.05.18,0,.34.32.76.58,1.25.8.54.23,1.16.35,1.85.35.61,0,1.11-.08,1.48-.25.37-.17.56-.43.56-.79,0-.23-.07-.42-.21-.59-.14-.17-.41-.34-.81-.51-.4-.17-1.03-.35-1.87-.55-.5-.13-1.03-.32-1.6-.58-.57-.26-1.05-.63-1.44-1.1-.4-.48-.59-1.08-.59-1.8s.23-1.4.69-1.94c.46-.53,1.05-.94,1.77-1.21.72-.27,1.46-.41,2.22-.41,1,0,1.86.11,2.57.31.67.2,1.26.49,1.78.87.06.04.07.13.03.18l-1.33,1.81c-.04.06-.11.07-.17.03-.29-.2-.67-.38-1.12-.55-.51-.19-1.09-.28-1.76-.28s-1.13.1-1.4.3c-.27.2-.41.45-.41.74,0,.36.22.63.67.84.44.2,1.13.42,2.07.64,1.15.26,2.06.66,2.75,1.2.69.54,1.03,1.36,1.03,2.46,0,.73-.22,1.36-.67,1.9-.44.54-1.03.96-1.77,1.25-.73.29-1.55.44-2.43.44-1.05,0-2.01-.15-2.87-.45-.82-.28-1.48-.69-1.99-1.23-.05-.05-.05-.13,0-.18Z"/>
      <path class="cls-1" d="M142.95,8.08c-2.11-2.66-5.97-3.1-8.63-.99-2.66,2.11-3.1,5.97-.99,8.63,2.11,2.66,5.97,3.1,8.63.99,2.66-2.11,3.1-5.97.99-8.63ZM140.51,14.88c-1.65,1.31-4.04,1.03-5.35-.61-1.31-1.65-1.03-4.04.61-5.35,1.65-1.31,4.04-1.03,5.35.61,1.31,1.65,1.03,4.04-.61,5.35Z"/>
    </g>
    <g>
      <path class="cls-2" d="M21.17,17.34V1.95c0-.21.17-.38.38-.38h9.7c.21,0,.38.17.38.38v1.93c0,.21-.17.38-.38.38h-6.65c-.21,0-.38.17-.38.38v3.04c0,.21.17.38.38.38h4.69c.21,0,.38.17.38.38v1.95c0,.21-.17.38-.38.38h-4.69c-.21,0-.38.17-.38.38v3.45c0,.21.17.38.38.38h7.21c.21,0,.38.17.38.38v1.98c0,.21-.17.38-.38.38h-10.26c-.21,0-.38-.17-.38-.38Z"/>
      <path class="cls-2" d="M32.75,17.56l4.14-5.51s.03-.09,0-.12l-3.95-5.39c-.05-.07,0-.17.08-.17h3.35s.07.02.09.05l2.16,3.12c.04.06.13.06.17,0l2.18-3.13s.05-.04.09-.04h2.96c.09,0,.14.1.08.17l-3.82,5.1s-.03.09,0,.12l4.26,5.8c.05.07,0,.17-.08.17h-3.35s-.07-.02-.09-.04l-2.47-3.54c-.04-.06-.13-.06-.17,0l-2.5,3.54s-.05.04-.09.04h-2.96c-.09,0-.14-.1-.08-.17Z"/>
      <path class="cls-2" d="M45.47,22.39V6.58c0-.12.1-.21.21-.21h2.34c.11,0,.21.09.21.2l.06,1.08c.29-.32.73-.65,1.32-.99.59-.34,1.35-.51,2.29-.51,1.16,0,2.12.29,2.87.86.75.57,1.31,1.31,1.68,2.22.37.9.56,1.87.56,2.88,0,.89-.13,1.65-.39,2.28-.26.63-.58,1.18-.97,1.65-.65.76-1.35,1.3-2.12,1.61-.77.31-1.55.47-2.36.47-.74,0-1.3-.06-1.68-.18-.38-.12-.78-.26-1.2-.42v4.89c0,.1-.08.17-.17.17h-2.49c-.1,0-.17-.08-.17-.17ZM48.3,11.57v3.37c.57.47,1.42.7,2.57.7.69,0,1.28-.17,1.77-.51.48-.34.86-.78,1.11-1.32.26-.54.39-1.11.39-1.71,0-.65-.09-1.23-.28-1.76-.19-.52-.5-.94-.93-1.26-.44-.32-1.02-.47-1.74-.47-.58,0-1.09.15-1.51.46-.43.31-.76.69-1.01,1.15s-.36.91-.36,1.34Z"/>
      <path class="cls-2" d="M58.57,17.54V1.75c0-.1.08-.18.18-.18h2.49c.1,0,.18.08.18.18v15.79c0,.1-.08.18-.18.18h-2.49c-.1,0-.18-.08-.18-.18Z"/>
      <path class="cls-2" d="M91.79,17.58l-.06-.92c-.31.37-.78.7-1.42.99-.64.29-1.34.44-2.1.44-.61,0-1.22-.13-1.83-.39s-1.11-.66-1.5-1.21c-.4-.55-.59-1.24-.59-2.08,0-1.29.46-2.29,1.38-3,.92-.71,2.12-1.07,3.61-1.07.27,0,.6,0,.98.02.38.02.87.04,1.47.07v-.27c0-.56-.23-1.01-.68-1.33-.45-.32-1.04-.48-1.77-.48-.81,0-1.45.11-1.94.31-.43.19-.82.39-1.16.6-.07.05-.17.03-.21-.05l-1.13-1.68c-.05-.07-.03-.17.04-.22.28-.2.6-.39.96-.58.42-.22.94-.4,1.55-.55.61-.15,1.37-.22,2.28-.22,1.45,0,2.62.38,3.49,1.15.87.77,1.31,1.76,1.31,2.97v7.47c0,.09-.07.16-.16.16h-2.36c-.08,0-.15-.06-.16-.15ZM91.73,13.7v-1.11c-.37-.03-.77-.06-1.21-.07-.44-.02-.77-.02-.99-.02-.92,0-1.57.18-1.94.55-.37.36-.56.78-.56,1.25s.17.86.52,1.14c.35.27.86.41,1.54.41.45,0,.88-.1,1.27-.29.4-.19.72-.45.98-.78.26-.32.39-.68.39-1.07Z"/>
      <path class="cls-2" d="M69.08,5.8c-3.39,0-6.14,2.75-6.14,6.14s2.75,6.14,6.14,6.14,6.14-2.75,6.14-6.14-2.75-6.14-6.14-6.14ZM69.08,15.53c-1.99,0-3.6-1.61-3.6-3.6s1.61-3.6,3.6-3.6,3.6,1.61,3.6,3.6-1.61,3.6-3.6,3.6Z"/>
      <path class="cls-2" d="M83.76,6.29c-.07-.07-.53-.14-.8-.14-.61,0-1.14.09-1.59.28-.44.19-.82.4-1.11.65-.3.25-.54.49-.71.71l-.06-1.23c0-.11-.1-.2-.21-.2h-2.33c-.11,0-.21.09-.21.21v10.99c0,.09.07.16.16.16h2.54c.09,0,.16-.07.16-.16v-5.97c0-.84.28-1.51.85-2.01.57-.5,1.24-.75,2.03-.75.38,0,.73.05,1.05.14.12.03.24-.06.24-.19v-2.5Z"/>
    </g>
  </g>
  <g>
    <path class="cls-1" d="M9.13,5.34l-1.48-1.48c-.1-.1-.26-.1-.36,0l-4.21,4.21c.02.63.16,1.73.77,2.9l5.27-5.27c.1-.1.1-.26,0-.36Z"/>
    <path class="cls-1" d="M9.18,9.76l-1.29-1.29c-.15-.15-.39-.15-.54,0l-3.12,3.12c.23.34.5.69.83,1.02.32.32.66.59,1,.81l3.12-3.12c.15-.15.15-.39,0-.54Z"/>
    <path class="cls-1" d="M13.4,10.38l-1.48-1.48c-.1-.1-.26-.1-.36,0l-4.87,4.87c1.05.51,2.13.65,3.08.58l3.62-3.62c.1-.1.1-.26,0-.36Z"/>
    <path class="cls-2" d="M9.31,0C4.78,0,1.12,3.67,1.12,8.19c0,1.82.6,3.5,1.61,4.86L.43,15.06c-.57.53-.57,1.43,0,1.97l.32.3c.57.53,1.47.48,1.96-.12l1.83-2.37c1.34.97,2.99,1.54,4.77,1.54,4.52,0,8.19-3.67,8.19-8.19S13.83,0,9.31,0ZM9.33,14.06c-3.24,0-5.87-2.63-5.87-5.87s2.63-5.87,5.87-5.87,5.87,2.63,5.87,5.87-2.63,5.87-5.87,5.87Z"/>
  </g>
</svg>