<svg width="18" height="24" viewBox="0 0 18 24" fill="none" xmlns="http://www.w3.org/2000/svg">
<mask id="mask0_244_200429" style="mask-type:luminance" maskUnits="userSpaceOnUse" x="0" y="0" width="18" height="24">
<path d="M9.98293 0.998035C9.98293 0.446877 10.4298 0 10.981 0H16.9693C17.5205 0 17.9674 0.446877 17.9674 0.998035V22.9552C17.9674 23.5064 17.5205 23.9532 16.9693 23.9532H1.00048C0.449319 23.9532 0.00244141 23.5064 0.00244141 22.9552V12.9747C0.00244141 12.4235 0.449319 11.9767 1.00048 11.9767H4.99276V6.98639C4.99276 6.43516 5.43956 5.98828 5.99079 5.98828H9.98293V0.998035Z" fill="white"/>
</mask>
<g mask="url(#mask0_244_200429)">
<path d="M17.9673 0V23.9532H9.98291V0H17.9673Z" fill="url(#paint0_linear_244_200429)"/>
</g>
<mask id="mask1_244_200429" style="mask-type:luminance" maskUnits="userSpaceOnUse" x="0" y="0" width="18" height="24">
<path d="M9.98293 0.998035C9.98293 0.446877 10.4298 0 10.981 0H16.9693C17.5205 0 17.9674 0.446877 17.9674 0.998035V22.9552C17.9674 23.5064 17.5205 23.9532 16.9693 23.9532H1.00048C0.449319 23.9532 0.00244141 23.5064 0.00244141 22.9552V12.9747C0.00244141 12.4235 0.449319 11.9767 1.00048 11.9767H4.99276V6.98639C4.99276 6.43516 5.43956 5.98828 5.99079 5.98828H9.98293V0.998035Z" fill="white"/>
</mask>
<g mask="url(#mask1_244_200429)">
<path d="M12.9772 7.08617V24.053H4.99268V6.08813H11.9791C12.5302 6.08813 12.9771 6.53494 12.9771 7.08617" fill="black" fill-opacity="0.2"/>
</g>
<mask id="mask2_244_200429" style="mask-type:luminance" maskUnits="userSpaceOnUse" x="0" y="0" width="18" height="24">
<path d="M9.98293 0.998035C9.98293 0.446877 10.4298 0 10.981 0H16.9693C17.5205 0 17.9674 0.446877 17.9674 0.998035V22.9552C17.9674 23.5064 17.5205 23.9532 16.9693 23.9532H1.00048C0.449319 23.9532 0.00244141 23.5064 0.00244141 22.9552V12.9747C0.00244141 12.4235 0.449319 11.9767 1.00048 11.9767H4.99276V6.98639C4.99276 6.43516 5.43956 5.98828 5.99079 5.98828H9.98293V0.998035Z" fill="white"/>
</mask>
<g mask="url(#mask2_244_200429)">
<path d="M12.9772 7.48541V24.4522H4.99268V6.4873H11.9791C12.5302 6.4873 12.9771 6.93418 12.9771 7.48541" fill="black" fill-opacity="0.18"/>
</g>
<mask id="mask3_244_200429" style="mask-type:luminance" maskUnits="userSpaceOnUse" x="0" y="0" width="18" height="24">
<path d="M9.98293 0.998035C9.98293 0.446877 10.4298 0 10.981 0H16.9693C17.5205 0 17.9674 0.446877 17.9674 0.998035V22.9552C17.9674 23.5064 17.5205 23.9532 16.9693 23.9532H1.00048C0.449319 23.9532 0.00244141 23.5064 0.00244141 22.9552V12.9747C0.00244141 12.4235 0.449319 11.9767 1.00048 11.9767H4.99276V6.98639C4.99276 6.43516 5.43956 5.98828 5.99079 5.98828H9.98293V0.998035Z" fill="white"/>
</mask>
<g mask="url(#mask3_244_200429)">
<path d="M12.9772 6.98639V23.9532H4.99268V5.98828H11.9791C12.5302 5.98828 12.9771 6.43516 12.9771 6.98639" fill="url(#paint1_linear_244_200429)"/>
</g>
<mask id="mask4_244_200429" style="mask-type:luminance" maskUnits="userSpaceOnUse" x="0" y="0" width="18" height="24">
<path d="M9.98293 0.998035C9.98293 0.446877 10.4298 0 10.981 0H16.9693C17.5205 0 17.9674 0.446877 17.9674 0.998035V22.9552C17.9674 23.5064 17.5205 23.9532 16.9693 23.9532H1.00048C0.449319 23.9532 0.00244141 23.5064 0.00244141 22.9552V12.9747C0.00244141 12.4235 0.449319 11.9767 1.00048 11.9767H4.99276V6.98639C4.99276 6.43516 5.43956 5.98828 5.99079 5.98828H9.98293V0.998035Z" fill="white"/>
</mask>
<g mask="url(#mask4_244_200429)">
<path d="M0.00244141 11.9766V23.9532H7.98686V12.9747C7.98686 12.4235 7.53999 11.9767 6.98883 11.9767L0.00244141 11.9766Z" fill="url(#paint2_linear_244_200429)"/>
</g>
<defs>
<linearGradient id="paint0_linear_244_200429" x1="350.063" y1="-5.81702e-06" x2="1232.57" y2="1870.67" gradientUnits="userSpaceOnUse">
<stop stop-color="#E6AD10"/>
<stop offset="1" stop-color="#C87E0E"/>
</linearGradient>
<linearGradient id="paint1_linear_244_200429" x1="325.346" y1="5.98827" x2="1061.57" y2="1433.87" gradientUnits="userSpaceOnUse">
<stop stop-color="#F6D751"/>
<stop offset="1" stop-color="#E6AD10"/>
</linearGradient>
<linearGradient id="paint2_linear_244_200429" x1="221.762" y1="11.9766" x2="670" y2="1074.27" gradientUnits="userSpaceOnUse">
<stop stop-color="#F9E589"/>
<stop offset="1" stop-color="#F6D751"/>
</linearGradient>
</defs>
</svg>
